<?xml version="1.0" encoding="utf-8"?>
<!-- Generator: Adobe Illustrator 25.2.0, SVG Export Plug-In . SVG Version: 6.00 Build 0)  -->
<svg version="1.1" id="Calque_1" xmlns="http://www.w3.org/2000/svg" xmlns:xlink="http://www.w3.org/1999/xlink" x="0px" y="0px"
	 viewBox="0 0 1600 1080" style="enable-background:new 0 0 1600 1080;" xml:space="preserve">
<style type="text/css">
	.st0{fill:#489967;stroke:#009640;stroke-miterlimit:10;}
	.st1{fill:#7ACADA;stroke:#2C5177;stroke-miterlimit:10;}
	.st2{fill:none;stroke:#2C2968;stroke-miterlimit:10;}
	.st3{fill:none;stroke:#252F62;stroke-miterlimit:10;}
	.st4{fill:#2B2560;}
	.st5{fill:none;stroke:#2B2560;stroke-miterlimit:10;}
	.st6{fill:#36A9E1;}
	.st7{fill:#B8ADB2;stroke:#867E81;stroke-miterlimit:10;}
	.st8{fill:none;stroke:#3D6E2B;stroke-width:10;stroke-linecap:round;stroke-linejoin:round;stroke-miterlimit:10;}
</style>
<rect y="-6.76" class="st0" width="1600.33" height="1086.76"/>
<path class="st1" d="M0,540c0,0,129.27-54.17,211.97-48.4s206.65-45.91,239.34-90.14S684,257.23,760.92,245.69
	S983.72,144.28,1034,63c40.92-66.16,143.31-63,143.31-63H1600c0,0,0,220.65,0,302.42c0,61.32-192.92,88.46-225.62,138.46
	c-32.69,50-161.54,157.69-242.31,180.77c-80.77,23.08-311.54,132.69-365.38,207.69c-53.85,75-185.52,147.57-275,148.08
	C246.07,978.81,65.38,1043.46,0,1080"/>
<path class="st2" d="M209.5,637.52c0,0,63.38-39,117.01-41.44s85.32-34.13,85.32-34.13"/>
<path class="st3" d="M209.5,832.54c0,0,59.43-63.38,165.54-58.51s157.05-31.69,195.25-51.19"/>
<path class="st4" d="M833.58,505.88"/>
<path class="st5" d="M628.81,583.89c0,0,79.36-71.66,141.27-75.54s146.4-65.85,146.4-65.85"/>
<path class="st6" d="M0.33,585.89c0,0,119.3-58.51,170.5-56.07s268.16-31.69,304.73-85.32s226.72-146.27,309.6-168.21
	c82.89-21.94,204.78-78.01,238.91-136.52C1058.19,81.26,1133.76,15.38,1177.64,2s422.69,0,422.69,0v262.1
	c0,0-27.76,31.69-108.21,63.38s-131.64,39-156.02,80.45s-114.58,126.77-180.4,156.02c-65.82,29.25-268.16,95.07-321.79,138.95
	c-53.63,43.88-121.89,168.21-204.78,197.46c-82.89,29.25-299.85,39-368.11,58.51s-255.97,48.76-263.28,70.7
	C-9.57,1051.51,0.33,585.89,0.33,585.89z"/>
<path class="st7" d="M1437.77,446.47c10.47-5.06,1.26-11.49-6.95-18.79c-8.21-7.3-22.76-1.92-32.45,1.66
	c-9.7,3.59-15.1,26.25-15.1,26.25S1384.19,472.37,1437.77,446.47z"/>
<path class="st7" d="M1416.05,471.72c11.34-2.58,3.81-10.91-2.55-19.87c-6.36-8.95-21.74-6.98-32-5.66s-20.6,22.19-20.6,22.19
	S1358.02,484.94,1416.05,471.72z"/>
<path class="st7" d="M1492.79,430.2c7.41-1.12,3.31-10.34,0-20.03c-3.31-9.69-13.24-9.69-19.86-9.69s-14.89,19.38-14.89,19.38
	S1454.87,435.92,1492.79,430.2z"/>
<path class="st7" d="M1357.25,520.12c7.41-1.12,3.31-10.34,0-20.03c-3.31-9.69-13.24-9.69-19.86-9.69
	c-6.62,0-14.89,19.38-14.89,19.38S1319.33,525.84,1357.25,520.12z"/>
<path class="st7" d="M1588.94,367.15c11.34-2.58,3.81-10.91-2.55-19.87s-21.74-6.98-32-5.66s-20.6,22.19-20.6,22.19
	S1530.91,380.37,1588.94,367.15z"/>
<path class="st7" d="M1584.2,392.67c7.41-1.12,3.31-10.34,0-20.03c-3.31-9.69-13.24-9.69-19.86-9.69
	c-6.62,0-14.89,19.38-14.89,19.38S1546.27,398.39,1584.2,392.67z"/>
<path class="st7" d="M1558.04,398.72c11.11-1.59,4.96-14.73,0-28.54c-4.96-13.81-19.85-13.81-29.77-13.81s-22.33,27.62-22.33,27.62
	S1501.18,406.87,1558.04,398.72z"/>
<path class="st7" d="M1313,571.99c11.34-2.58,3.81-10.91-2.55-19.87c-6.36-8.95-21.74-6.98-32-5.66
	c-10.25,1.32-20.6,22.19-20.6,22.19S1254.97,585.21,1313,571.99z"/>
<path class="st7" d="M1308.26,597.5c7.41-1.12,3.31-10.34,0-20.03s-13.24-9.69-19.86-9.69c-6.62,0-14.89,19.38-14.89,19.38
	S1270.33,603.22,1308.26,597.5z"/>
<path class="st7" d="M1282.1,603.55c11.11-1.59,4.96-14.73,0-28.54c-4.96-13.81-19.85-13.81-29.77-13.81S1230,588.82,1230,588.82
	S1225.24,611.7,1282.1,603.55z"/>
<path class="st7" d="M1238.22,606.24c7.41-1.12,3.31-10.34,0-20.03s-13.24-9.69-19.86-9.69s-14.89,19.38-14.89,19.38
	S1200.29,611.96,1238.22,606.24z"/>
<path class="st7" d="M1264.72,612.98c7.41-1.12,3.31-10.34,0-20.03c-3.31-9.69-13.24-9.69-19.86-9.69
	c-6.62,0-14.89,19.38-14.89,19.38S1226.79,618.7,1264.72,612.98z"/>
<path class="st7" d="M733.41,942.95c11.34-2.58,3.81-10.91-2.55-19.87c-6.36-8.95-21.74-6.98-32-5.66
	c-10.25,1.32-20.6,22.19-20.6,22.19S675.38,956.17,733.41,942.95z"/>
<path class="st7" d="M754.59,930.94c7.41-1.12,3.31-10.34,0-20.03c-3.31-9.69-13.24-9.69-19.86-9.69
	c-6.62,0-14.89,19.38-14.89,19.38S716.66,936.66,754.59,930.94z"/>
<path class="st7" d="M876.07,807.41c7.41-1.12,3.31-10.34,0-20.03c-3.31-9.69-13.24-9.69-19.86-9.69
	c-6.62,0-14.89,19.38-14.89,19.38S838.14,813.13,876.07,807.41z"/>
<path class="st7" d="M743.56,962.32c7.41-1.12,3.31-10.34,0-20.03c-3.31-9.69-13.24-9.69-19.86-9.69
	c-6.62,0-14.89,19.38-14.89,19.38S705.63,968.04,743.56,962.32z"/>
<path class="st7" d="M837.1,868.84c7.41-1.12,3.31-10.34,0-20.03c-3.31-9.69-13.24-9.69-19.86-9.69c-6.62,0-14.89,19.38-14.89,19.38
	S799.17,874.56,837.1,868.84z"/>
<path class="st7" d="M810.94,874.89c11.11-1.59,4.96-14.73,0-28.54c-4.96-13.81-19.85-13.81-29.77-13.81
	c-9.92,0-22.33,27.62-22.33,27.62S754.08,883.04,810.94,874.89z"/>
<path class="st7" d="M832.51,831.31c7.41-1.12,3.31-10.34,0-20.03s-13.24-9.69-19.86-9.69c-6.62,0-14.89,19.38-14.89,19.38
	S794.58,837.03,832.51,831.31z"/>
<path class="st7" d="M264.68,453.06c11.34-2.58,3.81-10.91-2.55-19.87c-6.36-8.95-21.74-6.98-32-5.66s-20.6,22.19-20.6,22.19
	S206.65,466.28,264.68,453.06z"/>
<path class="st7" d="M285.86,441.05c7.41-1.12,3.31-10.34,0-20.03c-3.31-9.69-13.24-9.69-19.86-9.69s-14.89,19.38-14.89,19.38
	S247.93,446.77,285.86,441.05z"/>
<path class="st7" d="M274.83,472.43c7.41-1.12,3.31-10.34,0-20.03c-3.31-9.69-13.24-9.69-19.86-9.69
	c-6.62,0-14.89,19.38-14.89,19.38S236.91,478.15,274.83,472.43z"/>
<path class="st7" d="M230.26,448.73c11.34-2.58,3.81-10.91-2.55-19.87c-6.36-8.95-21.74-6.98-32-5.66s-20.6,22.19-20.6,22.19
	S172.23,461.96,230.26,448.73z"/>
<path class="st7" d="M251.44,436.72c7.41-1.12,3.31-10.34,0-20.03C248.13,407,238.2,407,231.58,407c-6.62,0-14.89,19.38-14.89,19.38
	S213.51,442.44,251.44,436.72z"/>
<path class="st7" d="M240.41,468.1c7.41-1.12,3.31-10.34,0-20.03c-3.31-9.69-13.24-9.69-19.86-9.69s-14.89,19.38-14.89,19.38
	S202.49,473.82,240.41,468.1z"/>
<path class="st7" d="M320.41,446.55c11.34-2.58,3.81-10.91-2.55-19.87c-6.36-8.95-21.74-6.98-32-5.66
	c-10.25,1.32-20.6,22.19-20.6,22.19S262.38,459.77,320.41,446.55z"/>
<path class="st7" d="M402.01,1026.01c7.5,0.03,4.85-9.71,3.06-19.8c-1.79-10.08-11.6-11.6-18.15-12.61
	c-6.54-1.01-17.68,16.89-17.68,16.89S363.65,1025.87,402.01,1026.01z"/>
<path class="st7" d="M375.24,1028c11.23,0.12,7.15-13.8,4.35-28.21c-2.8-14.4-17.51-16.68-27.32-18.19
	c-9.81-1.51-26.28,23.89-26.28,23.89S317.8,1027.37,375.24,1028z"/>
<path class="st7" d="M393.38,1040.61c7.41-1.12,3.31-10.34,0-20.03c-3.31-9.69-13.24-9.69-19.86-9.69s-14.89,19.38-14.89,19.38
	S355.46,1046.32,393.38,1040.61z"/>
<path class="st7" d="M198.91,1081.35c18.66-4.2,6.27-17.75-4.2-32.31c-10.47-14.56-35.78-11.35-52.65-9.2
	c-16.87,2.14-33.9,36.09-33.9,36.09S103.43,1102.85,198.91,1081.35z"/>
<path class="st7" d="M233.76,1061.81c12.2-1.82,5.45-16.81,0-32.58c-5.45-15.76-21.78-15.76-32.67-15.76s-24.5,31.52-24.5,31.52
	S171.36,1071.11,233.76,1061.81z"/>
<path class="st7" d="M142.27,1074.31c18.66-4.2,6.27-17.75-4.2-32.31c-10.47-14.56-35.78-11.35-52.65-9.21s-33.9,36.09-33.9,36.09
	S46.79,1095.81,142.27,1074.31z"/>
<path class="st7" d="M177.12,1054.78c12.2-1.82,5.45-16.81,0-32.58c-5.45-15.76-21.78-15.76-32.67-15.76
	c-10.89,0-24.5,31.52-24.5,31.52S114.72,1064.08,177.12,1054.78z"/>
<path class="st7" d="M290.61,1070.75c18.66-4.2,6.27-17.75-4.2-32.31c-10.47-14.56-35.78-11.35-52.65-9.2
	c-16.87,2.14-33.9,36.09-33.9,36.09S195.13,1092.26,290.61,1070.75z"/>
<path class="st7" d="M844.73,188.75c10.24-3,2.72-15.81-3.78-29.47c-6.5-13.65-20.5-11.84-29.83-10.64s-17.35,31.23-17.35,31.23
	S792.32,204.08,844.73,188.75z"/>
<path class="st7" d="M935.8,104.54c10.95-1.66,4.89-15.33,0-29.71c-4.89-14.38-19.56-14.38-29.35-14.38
	c-9.78,0-22.01,28.75-22.01,28.75S879.76,113.02,935.8,104.54z"/>
<path class="st7" d="M965.15,118.91c10.95-1.66,4.89-15.33,0-29.71c-4.89-14.38-19.56-14.38-29.35-14.38
	c-9.78,0-22.01,28.75-22.01,28.75S909.1,127.39,965.15,118.91z"/>
<path class="st7" d="M907.61,108.29c10.94-1.66,4.88-15.33,0-29.71c-4.88-14.38-19.53-14.38-29.3-14.38
	c-9.77,0-21.97,28.75-21.97,28.75S851.66,116.77,907.61,108.29z"/>
<path class="st7" d="M928.07,136.73c16.76-3.83,5.63-16.19-3.77-29.47s-32.13-10.35-47.29-8.39c-15.15,1.95-30.45,32.91-30.45,32.91
	S842.32,156.34,928.07,136.73z"/>
<path class="st7" d="M1021.3,62.95c5.94-1.14,2.65-10.53,0-20.41s-10.61-9.87-15.91-9.87s-11.93,19.75-11.93,19.75
	S990.91,68.77,1021.3,62.95z"/>
<path class="st7" d="M138.14,476.93c16.76-3.83,5.63-16.19-3.77-29.47c-9.4-13.28-32.13-10.35-47.29-8.39
	c-15.15,1.95-30.45,32.91-30.45,32.91S52.38,496.54,138.14,476.93z"/>
<path class="st7" d="M-5.28,431.43"/>
<g>
	<path class="st8" d="M608.29,912.13c0,0,28.12,26.06,30.33,40.11c2.21,14.05-7.08-73.72-7.08-73.72"/>
	<path class="st8" d="M662.53,899.36c0,0-27.68,37.51-23.91,52.88"/>
</g>
<g>
	<path class="st8" d="M641.47,895.98c0,0,21.83,20.09,23.55,30.92c1.72,10.83-5.5-56.83-5.5-56.83"/>
	<path class="st8" d="M683.59,886.14c0,0-21.49,28.92-18.56,40.76"/>
</g>
<g>
	<path class="st8" d="M572.36,929.08c0,0,21.83,20.09,23.55,30.92c1.72,10.83-5.5-56.83-5.5-56.83"/>
	<path class="st8" d="M614.47,919.23c0,0-21.49,28.92-18.56,40.76"/>
</g>
<g>
	<path class="st8" d="M487.43,909.83c21.12,5.39,39.06,67.8,39.06,67.8l-19.53-99.11"/>
	<path class="st8" d="M558.59,901.42l-32.35,76.78c2.61-46.67,13.48-99.68,13.48-99.68"/>
</g>
<g>
	<path class="st8" d="M255.95,415.86c22.25,4.53,41.14,56.97,41.14,56.97l-20.57-83.27"/>
	<path class="st8" d="M330.9,408.79l-34.07,64.51c2.75-39.21,14.2-83.75,14.2-83.75"/>
</g>
<g>
	<path class="st8" d="M768.76,167.62c28.74,4.01,53.15,50.44,53.15,50.44l-26.57-73.74"/>
	<path class="st8" d="M865.6,161.36l-44.02,57.12c3.55-34.72,18.34-74.16,18.34-74.16"/>
</g>
<g>
	<path class="st8" d="M186.94,438.12c28.74,4.01,53.15,50.44,53.15,50.44l-26.57-73.74"/>
	<path class="st8" d="M283.77,431.86l-44.02,57.12c3.55-34.72,18.34-74.16,18.34-74.16"/>
</g>
<g>
	<path class="st8" d="M130.32,431.69c15.52,2.94,28.7,37.03,28.7,37.03l-14.35-54.13"/>
	<path class="st8" d="M182.62,427.1l-23.77,41.93c1.92-25.49,9.91-54.44,9.91-54.44"/>
</g>
<g>
	<path class="st8" d="M1288.34,490.43c21.53,3.79,39.82,47.75,39.82,47.75l-19.91-69.8"/>
	<path class="st8" d="M1360.9,484.51l-32.98,54.07c2.66-32.87,13.74-70.2,13.74-70.2"/>
</g>
<g>
	<path class="st8" d="M1319.28,437.5c21.53,3.79,39.82,47.75,39.82,47.75l-19.91-69.8"/>
	<path class="st8" d="M1391.84,431.58l-32.98,54.07c2.66-32.87,13.74-70.2,13.74-70.2"/>
</g>
<g>
	<path class="st8" d="M1361.41,455.33c21.53,3.79,39.82,47.75,39.82,47.75l-19.91-69.8"/>
	<path class="st8" d="M1433.97,449.41l-32.98,54.07c2.66-32.87,13.74-70.2,13.74-70.2"/>
</g>
<g>
	<path class="st8" d="M844.65,128.49c21.12,4.6,39.06,57.94,39.06,57.94l-19.53-84.7"/>
	<path class="st8" d="M915.81,121.3l-32.35,65.61c2.61-39.88,13.48-85.19,13.48-85.19"/>
</g>
<g>
	<path class="st8" d="M751.68,791.54c21.53,2.92,39.82,36.78,39.82,36.78l-19.91-53.76"/>
	<path class="st8" d="M824.24,786.98l-32.98,41.65c2.66-25.32,13.74-54.07,13.74-54.07"/>
</g>
<g>
	<path class="st8" d="M1469.57,379.5c21.53,2.92,39.82,36.78,39.82,36.78l-19.91-53.76"/>
	<path class="st8" d="M1542.12,374.94l-32.98,41.65c2.66-25.32,13.74-54.07,13.74-54.07"/>
</g>
<g>
	<path class="st8" d="M294.62,996.39c21.53,2.92,39.82,36.78,39.82,36.78l-19.91-53.76"/>
	<path class="st8" d="M367.18,991.83l-32.98,41.65c2.66-25.32,13.74-54.07,13.74-54.07"/>
</g>
<g>
	<path class="st8" d="M199.83,983.51c21.53,2.92,39.82,36.78,39.82,36.78l-19.91-53.76"/>
	<path class="st8" d="M272.39,978.95l-32.98,41.65c2.66-25.32,13.74-54.07,13.74-54.07"/>
</g>
<g>
	<path class="st8" d="M957.12,38.38c21.53,2.92,39.82,36.78,39.82,36.78L977.03,21.4"/>
	<path class="st8" d="M1029.68,33.82L996.7,75.47c2.66-25.32,13.74-54.07,13.74-54.07"/>
</g>
<g>
	<path class="st8" d="M1406.18,383.85c21.53,2.92,39.82,36.78,39.82,36.78l-19.91-53.76"/>
	<path class="st8" d="M1478.73,379.29l-32.98,41.65c2.66-25.32,13.74-54.07,13.74-54.07"/>
</g>
<g>
	<path class="st8" d="M1256.65,581.95c21.53,2.92,39.82,36.78,39.82,36.78l-19.91-53.76"/>
	<path class="st8" d="M1329.21,577.39l-32.98,41.65c2.66-25.32,13.74-54.07,13.74-54.07"/>
</g>
<path class="st7" d="M1542.18,702.08c33.34-7.62,11.08-32.71-7.75-59.66c-18.83-26.95-64.07-21.21-94.23-17.38
	s-60.35,66.35-60.35,66.35S1371.59,741.05,1542.18,702.08z"/>
<path class="st7" d="M1533.11,726.57c13.8-1.91,6.16-17.7,0-34.3s-24.65-16.6-36.97-16.6c-12.32,0-27.73,33.19-27.73,33.19
	S1462.5,736.36,1533.11,726.57z"/>
<path class="st7" d="M247.7,277.32c33.34-7.62,11.08-32.71-7.75-59.66s-64.07-21.21-94.23-17.38s-60.35,66.35-60.35,66.35
	S77.11,316.29,247.7,277.32z"/>
<path class="st7" d="M238.63,301.81c13.8-1.91,6.16-17.7,0-34.3c-6.16-16.6-24.65-16.6-36.97-16.6s-27.73,33.19-27.73,33.19
	S168.02,311.6,238.63,301.81z"/>
<path class="st7" d="M170.02,308.24c16.76-3.83,5.63-16.19-3.77-29.47c-9.4-13.28-32.13-10.35-47.29-8.39s-30.45,32.91-30.45,32.91
	S84.27,327.85,170.02,308.24z"/>
<g>
	<path class="st8" d="M1395.13,692.12c21.53,2.92,39.82,36.78,39.82,36.78l-19.91-53.76"/>
	<path class="st8" d="M1467.69,687.56l-32.98,41.65c2.66-25.32,13.74-54.07,13.74-54.07"/>
</g>
<path class="st7" d="M1494.06,525.78c7.41-1.12,3.31-10.34,0-20.03c-3.31-9.69-13.24-9.69-19.86-9.69
	c-6.62,0-14.89,19.38-14.89,19.38S1456.14,531.5,1494.06,525.78z"/>
<path class="st7" d="M170.76,131.18c9.12-1.45,4.07-13.42,0-25.99s-16.28-12.58-24.43-12.58c-8.14,0-18.32,25.15-18.32,25.15
	S124.1,138.6,170.76,131.18z"/>
<path class="st7" d="M952.05,974.24c7.41-1.12,3.31-10.34,0-20.03c-3.31-9.69-13.24-9.69-19.86-9.69
	c-6.62,0-14.89,19.38-14.89,19.38S914.13,979.96,952.05,974.24z"/>
<path class="st7" d="M1455.89,896.94c33.34-7.62,11.08-32.71-7.75-59.66s-64.07-21.21-94.23-17.38
	c-30.16,3.83-60.35,66.35-60.35,66.35S1285.3,935.91,1455.89,896.94z"/>
<path class="st7" d="M1389.95,921.43c13.8-1.91,6.16-17.7,0-34.3s-24.65-16.6-36.97-16.6c-12.32,0-27.73,33.19-27.73,33.19
	S1319.34,931.22,1389.95,921.43z"/>
<path class="st7" d="M1441.4,912.81c13.8-1.91,6.16-17.7,0-34.3s-24.65-16.6-36.97-16.6s-27.73,33.19-27.73,33.19
	S1370.79,922.6,1441.4,912.81z"/>
<path class="st7" d="M1419.11,931.25c13.8-1.91,6.16-17.7,0-34.3s-24.65-16.6-36.97-16.6s-27.73,33.19-27.73,33.19
	S1348.51,941.04,1419.11,931.25z"/>
<g>
	<path class="st8" d="M925.57,81.83c21.53,2.92,39.82,36.78,39.82,36.78l-19.91-53.76"/>
	<path class="st8" d="M998.13,77.26l-32.98,41.65c2.66-25.32,13.74-54.07,13.74-54.07"/>
</g>
<g>
	<path class="st8" d="M142.39,263.63c21.53,2.92,39.82,36.78,39.82,36.78l-19.91-53.76"/>
	<path class="st8" d="M214.95,259.07l-32.98,41.65c2.66-25.32,13.74-54.07,13.74-54.07"/>
</g>
</svg>
